<svg xmlns="http://www.w3.org/2000/svg" style="display: none">
  <symbol id="icon-plus" viewBox="0 0 18 18">
    <path stroke-linecap="round" stroke-linejoin="round" stroke-width="1.499" d="M3.749 8.997h10.496M8.997 3.749v10.496"/>
  </symbol>
  <symbol id="icon-grid" viewBox="0 0 18 18">
    <path stroke-linecap="round" stroke-linejoin="round" stroke-width="1.499" d="M6.747 2.25H3a.75.75 0 0 0-.75.749v3.749c0 .414.336.75.75.75h3.748a.75.75 0 0 0 .75-.75v-3.75a.75.75 0 0 0-.75-.749M14.995 2.25h-3.749a.75.75 0 0 0-.75.749v3.749c0 .414.336.75.75.75h3.749a.75.75 0 0 0 .75-.75v-3.75a.75.75 0 0 0-.75-.749M14.995 10.496h-3.749a.75.75 0 0 0-.75.75v3.749c0 .414.336.75.75.75h3.749a.75.75 0 0 0 .75-.75v-3.749a.75.75 0 0 0-.75-.75M6.747 10.496H3a.75.75 0 0 0-.75.75v3.749c0 .414.336.75.75.75h3.748a.75.75 0 0 0 .75-.75v-3.749a.75.75 0 0 0-.75-.75"/>
  </symbol>
  <symbol id="icon-star" viewBox="0 0 18 18">
    <g clip-path="url(#a)">
      <path stroke-linecap="round" stroke-linejoin="round" stroke-width="1.499" d="M8.64 1.72a.397.397 0 0 1 .713 0l1.732 3.509a1.59 1.59 0 0 0 1.196.87l3.873.566a.397.397 0 0 1 .22.678l-2.8 2.728a1.59 1.59 0 0 0-.459 1.408l.661 3.853a.397.397 0 0 1-.578.42l-3.462-1.82a1.59 1.59 0 0 0-1.48 0l-3.46 1.82a.397.397 0 0 1-.578-.42l.66-3.853a1.59 1.59 0 0 0-.458-1.408l-2.8-2.727a.397.397 0 0 1 .22-.68l3.872-.566a1.59 1.59 0 0 0 1.198-.87z"/>
    </g>
    <defs>
      <clipPath id="a">
        <path fill="#fff" d="M0 0h17.994v17.994H0z"/>
      </clipPath>
    </defs>
  </symbol>
  <symbol id="icon-cog" viewBox="0 0 18 18">
    <path stroke-linecap="round" stroke-linejoin="round" stroke-width="1.499" d="M9.162 1.5h-.33a1.5 1.5 0 0 0-1.5 1.499v.135a1.5 1.5 0 0 1-.75 1.297l-.322.187a1.5 1.5 0 0 1-1.5 0l-.112-.06a1.5 1.5 0 0 0-2.047.548l-.165.285a1.5 1.5 0 0 0 .548 2.046l.112.075a1.5 1.5 0 0 1 .75 1.29v.382a1.5 1.5 0 0 1-.75 1.305l-.112.067a1.5 1.5 0 0 0-.548 2.047l.165.285a1.5 1.5 0 0 0 2.047.547l.113-.06a1.5 1.5 0 0 1 1.5 0l.322.188a1.5 1.5 0 0 1 .75 1.297v.135a1.5 1.5 0 0 0 1.499 1.5h.33a1.5 1.5 0 0 0 1.5-1.5v-.135a1.5 1.5 0 0 1 .749-1.297l.322-.188a1.5 1.5 0 0 1 1.5 0l.112.06a1.5 1.5 0 0 0 2.047-.547l.165-.292a1.5 1.5 0 0 0-.547-2.047l-.113-.06a1.5 1.5 0 0 1-.75-1.305V8.81a1.5 1.5 0 0 1 .75-1.305l.113-.068a1.5 1.5 0 0 0 .547-2.046l-.165-.285a1.5 1.5 0 0 0-2.047-.548l-.112.06a1.5 1.5 0 0 1-1.5 0l-.322-.187a1.5 1.5 0 0 1-.75-1.297v-.135a1.5 1.5 0 0 0-1.5-1.5"/>
    <path stroke-linecap="round" stroke-linejoin="round" stroke-width="1.499" d="M8.997 11.246a2.25 2.25 0 1 0 0-4.498 2.25 2.25 0 0 0 0 4.498"/>
  </symbol>
  <symbol id="icon-folder" viewBox="0 0 13 12">
    <path stroke-linecap="round" stroke-linejoin="round" stroke-width="1.167" d="m2.917 7 .874-1.692a1.17 1.17 0 0 1 1.015-.642h6.276m0 0a1.166 1.166 0 0 1 1.132 1.458l-.898 3.5a1.166 1.166 0 0 1-1.138.875H1.75A1.166 1.166 0 0 1 .583 9.332V1.75A1.167 1.167 0 0 1 1.75.583h2.275a1.17 1.17 0 0 1 .986.525l.472.7a1.17 1.17 0 0 0 .974.525h3.459A1.167 1.167 0 0 1 11.082 3.5z"/>
  </symbol>
  <symbol id="icon-play" viewBox="0 0 32 32">
    <path d="M8 6 L26 16 L8 26 Z" stroke-linecap="round" stroke-linejoin="round" stroke-width="2" fill="none" />
  </symbol>
  <symbol id="icon-monitor" viewBox="0 0 20 20">
    <path stroke-linecap="round" stroke-linejoin="round" stroke-width="1.666" d="M16.664 2.5H3.333c-.92 0-1.666.746-1.666 1.666v8.332c0 .92.746 1.666 1.666 1.666h13.33c.921 0 1.667-.746 1.667-1.666V4.166c0-.92-.746-1.666-1.666-1.666M6.665 17.497h5M9.998 14.158v3"/>
  </symbol>
  <symbol id="icon-edit" viewBox="0 0 14 14">
    <path stroke-linecap="round" stroke-linejoin="round" stroke-width="1.167" d="M6.999 11.665h5.25M9.552 2.113a1.238 1.238 0 1 1 1.75 1.75L4.299 10.87c-.14.139-.31.24-.5.295l-1.674.49a.292.292 0 0 1-.362-.362l.489-1.676c.055-.188.156-.36.295-.498z"/>
  </symbol>
  <symbol id="icon-trash" viewBox="0 0 14 14">
    <g stroke-linecap="round" stroke-linejoin="round" stroke-width="1.167" clip-path="url(#a)">
      <path d="M1.75 3.5h10.499M11.082 3.5v8.165c0 .584-.583 1.167-1.166 1.167H4.083c-.583 0-1.166-.583-1.166-1.167V3.5M4.666 3.5V2.333c0-.583.583-1.166 1.167-1.166h2.333c.583 0 1.166.583 1.166 1.166V3.5M5.833 6.416v3.5M8.166 6.416v3.5"/>
    </g>
    <defs>
      <clipPath id="a">
        <path fill="#fff" d="M0 0h13.998v13.998H0z"/>
      </clipPath>
    </defs>
  </symbol>
  <symbol id="icon-folder-download" viewBox="0 0 14 14">
    <g stroke-linecap="round" stroke-linejoin="round" stroke-width="1.167" clip-path="url(#a)">
      <path d="M11.665 11.665a1.167 1.167 0 0 0 1.167-1.166V4.666A1.166 1.166 0 0 0 11.665 3.5H7.058a1.17 1.17 0 0 1-.986-.525l-.473-.7a1.17 1.17 0 0 0-.974-.525H2.333a1.167 1.167 0 0 0-1.166 1.166V10.5a1.167 1.167 0 0 0 1.166 1.166zM6.999 5.833v3.5"/>
      <path d="M8.75 7.583 7 9.333l-1.75-1.75"/>
    </g>
    <defs>
      <clipPath id="a">
        <path fill="#fff" d="M0 0h13.998v13.998H0z"/>
      </clipPath>
    </defs>
  </symbol>
  <symbol id="icon-kebab" viewBox="0 0 18 18">
    <path stroke-linecap="round" stroke-linejoin="round" stroke-width="1.499" d="M8.997 9.747a.75.75 0 1 0 0-1.5.75.75 0 0 0 0 1.5M8.997 4.498a.75.75 0 1 0 0-1.499.75.75 0 0 0 0 1.5M8.997 14.995a.75.75 0 1 0 0-1.5.75.75 0 0 0 0 1.5"/>
  </symbol>
  <symbol id="icon-cross" viewBox="0 0 20 20">
    <path stroke-linecap="round" stroke-linejoin="round" stroke-width="1.666" d="M14.997 5 5 14.996M4.999 5l9.998 9.997"/>
  </symbol>
  <symbol id="icon-save" viewBox="0 0 16 16">
    <path stroke-linecap="round" stroke-linejoin="round" stroke-width="1.333" d="M10.128 1.999c.351.005.687.149.933.4l2.532 2.532c.25.246.395.58.4.932v6.797a1.333 1.333 0 0 1-1.333 1.332H3.332a1.333 1.333 0 0 1-1.333-1.332V3.332a1.333 1.333 0 0 1 1.333-1.333z"/>
    <path stroke-linecap="round" stroke-linejoin="round" stroke-width="1.333" d="M11.327 13.992V9.328a.666.666 0 0 0-.666-.666H5.33a.666.666 0 0 0-.667.666v4.664M4.664 1.999v2.665a.666.666 0 0 0 .666.666h4.664"/>
  </symbol>
  <symbol id="icon-locked" viewBox="0 0 24 24">
    <rect stroke-width='2' width="18" height="11" x="3" y="11" rx="2" ry="2"></rect>
    <path stroke-width='2' d="M7 11V7a5 5 0 0 1 10 0v4"></path>
  </symbol>
  <symbol id="icon-unlocked" viewBox="0 0 24 24">
    <rect stroke-width='2' width="18" height="11" x="3" y="11" rx="2" ry="2"/>
    <path stroke-width='2' d="M7 11V7a5 5 0 0 1 9.9-1"/>
  </symbol>
  <symbol id="icon-search" viewBox="0 0 18 18">
    <path stroke-linecap="round" stroke-linejoin="round" stroke-width="1.499" d="M8.247 14.245a5.998 5.998 0 1 0 0-11.996 5.998 5.998 0 0 0 0 11.996M15.744 15.745l-3.223-3.224"/>
  </symbol>
  <symbol id="icon-reload" viewBox="0 0 24 24" stroke-linecap="round" stroke-linejoin="round" stroke-width="2">
    <path d="M21 12a9 9 0 0 0-9-9 9.75 9.75 0 0 0-6.74 2.74L3 8"/>
    <path d="M3 3v5h5M3 12a9 9 0 0 0 9 9 9.75 9.75 0 0 0 6.74-2.74L21 16"/>
    <path d="M16 16h5v5"/>
  </symbol>
  <symbol id="icon-arrow-up-down" viewBox="0 0 24 24" stroke-linecap="round" stroke-linejoin="round" stroke-width="2">
    <path d="m8 7 4-4 4 4"/>
    <path d="M12 3v18"/>
    <path d="m16 17-4 4-4-4"/>
  </symbol>
  <symbol id="icon-archive" viewBox="0 0 24 24" stroke-linecap="round" stroke-linejoin="round" stroke-width="2">
    <rect width="20" height="5" x="2" y="3" rx="1"/>
    <path d="M4 8v11a2 2 0 0 0 2 2h12a2 2 0 0 0 2-2V8M10 12h4"/>
  </symbol>
  <symbol id="icon-file-code" viewBox="0 0 24 24" stroke-linecap="round" stroke-linejoin="round" stroke-width="2">
    <path d="M10 12.5 8 15l2 2.5M14 12.5l2 2.5-2 2.5M14 2v4a2 2 0 0 0 2 2h4"/>
    <path d="M15 2H6a2 2 0 0 0-2 2v16a2 2 0 0 0 2 2h12a2 2 0 0 0 2-2V7z"/>
  </symbol>
  <symbol id="icon-package" viewBox="0 0 24 24" stroke-linecap="round" stroke-linejoin="round" stroke-width="2">
    <path d="M11 21.73a2 2 0 0 0 2 0l7-4A2 2 0 0 0 21 16V8a2 2 0 0 0-1-1.73l-7-4a2 2 0 0 0-2 0l-7 4A2 2 0 0 0 3 8v8a2 2 0 0 0 1 1.73zM12 22V12"/>
    <path d="M3.29 7 12 12l8.71-5M7.5 4.27l9 5.15"/>
  </symbol>
  <symbol id="icon-circle-alert" viewBox="0 0 24 24" stroke-linecap="round" stroke-linejoin="round" stroke-width="2">
    <circle cx="12" cy="12" r="10"/>
    <path d="M12 8v4M12 16h.01"/>
  </symbol>
  <symbol id="icon-chevron-down" viewBox="0 0 24 24" stroke-linecap="round" stroke-linejoin="round" stroke-width="2">
    <path d="m6 9 6 6 6-6"/>
  </symbol>
  <symbol id="icon-chevron-right" viewBox="0 0 24 24" stroke-linecap="round" stroke-linejoin="round" stroke-width="2">
    <path d="m9 6 6 6-6 6"/>
  </symbol>
  <symbol id="icon-circle-checkmark" viewBox="0 0 12 12">
    <g stroke-linecap="round" stroke-linejoin="round" clip-path="url(#a)">
      <path d="M5.998 10.996a4.998 4.998 0 1 0 0-9.996 4.998 4.998 0 0 0 0 9.996"/>
      <path d="m4.498 5.998 1 1 1.999-2"/>
    </g>
    <defs>
      <clipPath id="a">
        <path fill="#fff" d="M0 0h11.996v11.996H0z"/>
      </clipPath>
    </defs>
  </symbol>
  <symbol id="icon-triangle-alert" viewBox="0 0 24 24" stroke-linecap="round" stroke-linejoin="round" stroke-width="2">
    <path d="m21.73 18-8-14a2 2 0 0 0-3.48 0l-8 14A2 2 0 0 0 4 21h16a2 2 0 0 0 1.73-3M12 9v4M12 17h.01"/>
  </symbol>
  <symbol id="icon-circle-cross" viewBox="0 0 24 24" stroke-linecap="round" stroke-linejoin="round" stroke-width="2">
    <circle cx="12" cy="12" r="10"/>
    <path d="m15 9-6 6M9 9l6 6"/>
  </symbol>
  <symbol id="icon-database" viewBox="0 0 24 24" stroke-linecap="round" stroke-linejoin="round" stroke-width="2">
    <ellipse cx="12" cy="5" rx="9" ry="3"/>
    <path d="M3 5v14a9 3 0 0 0 18 0V5"/>
    <path d="M3 12a9 3 0 0 0 18 0"/>
  </symbol>
  <symbol id="icon-scan-search" viewBox="0 0 24 24" stroke-linecap="round" stroke-linejoin="round" stroke-width="2">
    <path d="M3 7V5a2 2 0 0 1 2-2h2M17 3h2a2 2 0 0 1 2 2v2M21 17v2a2 2 0 0 1-2 2h-2M7 21H5a2 2 0 0 1-2-2v-2"/>
    <circle cx="12" cy="12" r="3"/>
    <path d="m16 16-1.9-1.9"/>
  </symbol>
  <symbol id="icon-package-cross" viewBox="0 0 24 24" stroke-linecap="round" stroke-linejoin="round" stroke-width="2">
    <path d="M21 10V8a2 2 0 0 0-1-1.73l-7-4a2 2 0 0 0-2 0l-7 4A2 2 0 0 0 3 8v8a2 2 0 0 0 1 1.73l7 4a2 2 0 0 0 2 0l2-1.14M7.5 4.27l9 5.15"/>
    <path d="M3.29 7 12 12l8.71-5M12 22V12M17 13l5 5m-5 0 5-5"/>
  </symbol>
  <symbol id="icon-folder-export" viewBox="0 0 24 24" stroke-linecap="round" stroke-linejoin="round" stroke-width="2">
    <path d="M2 7.5V5a2 2 0 0 1 2-2h3.9a2 2 0 0 1 1.69.9l.81 1.2a2 2 0 0 0 1.67.9H20a2 2 0 0 1 2 2v10a2 2 0 0 1-2 2H4a2 2 0 0 1-2-1.5M2 13h10"/>
    <path d="m5 10-3 3 3 3"/>
  </symbol>
  <symbol id="icon-shield-checkmark" viewBox="0 0 24 24" stroke-linecap="round" stroke-linejoin="round" stroke-width="2">
    <path d="M20 13c0 5-3.5 7.5-7.66 8.95a1 1 0 0 1-.67-.01C7.5 20.5 4 18 4 13V6a1 1 0 0 1 1-1c2 0 4.5-1.2 6.24-2.72a1.17 1.17 0 0 1 1.52 0C14.51 3.81 17 5 19 5a1 1 0 0 1 1 1z"/>
    <path d="m9 12 2 2 4-4"/>
  </symbol>
  <symbol id="icon-clock-recent" viewBox="0 0 18 18">
    <path stroke-linecap="round" stroke-linejoin="round" stroke-width="1.499" d="M2.25 8.997a6.747 6.747 0 1 0 6.747-6.748 7.3 7.3 0 0 0-5.053 2.054L2.249 5.998"/>
    <path stroke-linecap="round" stroke-linejoin="round" stroke-width="1.499" d="M2.25 2.249v3.749h3.748M8.997 5.248v3.749l2.999 1.5"/>
  </symbol>
  <symbol id="icon-list" viewBox="0 0 24 24" stroke-linecap="round" stroke-linejoin="round" stroke-width="2">
    <path d="M3 12h.01M3 18h.01M3 6h.01M8 12h13M8 18h13M8 6h13"/>
  </symbol>
  <symbol id="icon-shuffle" viewBox="0 0 24 24" stroke-linecap="round" stroke-linejoin="round" stroke-width="2">
    <path d="m18 14 4 4-4 4"/>
    <path d="m18 2 4 4-4 4"/>
    <path d="M2 18h1.973a4 4 0 0 0 3.3-1.7l5.454-8.6a4 4 0 0 1 3.3-1.7H22"/>
    <path d="M2 6h1.972a4 4 0 0 1 3.6 2.2"/>
    <path d="M22 18h-6.041a4 4 0 0 1-3.3-1.8l-.359-.45"/>
  </symbol>
  <symbol id="icon-external-link" viewBox="0 0 24 24" stroke-linecap="round" stroke-linejoin="round" stroke-width="2">
    <path d="M15 3h6v6M10 14 21 3M18 13v6a2 2 0 0 1-2 2H5a2 2 0 0 1-2-2V8a2 2 0 0 1 2-2h6"/>
  </symbol>
</svg>